<?xml version="1.0" standalone="no"?>
<!DOCTYPE svg PUBLIC "-//W3C//DTD SVG 20010904//EN"
 "http://www.w3.org/TR/2001/REC-SVG-20010904/DTD/svg10.dtd">
<svg version="1.0" xmlns="http://www.w3.org/2000/svg"
 width="200.000000pt" height="200.000000pt" viewBox="0 0 200.000000 200.000000"
 preserveAspectRatio="xMidYMid meet">
<metadata>
Created by potrace 1.16, written by Peter Selinger 2001-2019
</metadata>
<g transform="translate(0.000000,200.000000) scale(0.100000,-0.100000)"
fill="#000000" stroke="none">
<path d="M800 1985 c-396 -80 -710 -397 -786 -793 -18 -95 -18 -289 0 -384 79
-409 411 -732 819 -798 110 -18 330 -8 432 19 116 31 267 110 365 189 159 129
290 327 341 517 27 102 37 322 19 432 -66 408 -389 740 -798 819 -91 17 -304
17 -392 -1z m435 -90 c33 -9 110 -40 170 -70 193 -94 325 -226 420 -420 79
-161 90 -208 90 -405 0 -191 -11 -240 -81 -388 -97 -206 -240 -349 -445 -446
-149 -70 -198 -81 -389 -81 -191 0 -240 11 -389 81 -205 97 -348 240 -445 446
-70 148 -81 197 -81 388 0 193 11 241 84 395 123 257 362 448 641 510 87 19
340 14 425 -10z"/>
<path d="M560 985 l0 -505 25 0 25 0 0 475 0 475 308 0 309 0 61 -31 c168 -84
230 -277 140 -440 -40 -74 -104 -128 -180 -153 -37 -12 -89 -16 -199 -16
l-149 0 0 -26 0 -26 183 4 c210 4 239 12 327 94 76 71 103 136 108 261 4 97 3
106 -25 166 -36 76 -78 125 -141 166 -86 55 -132 61 -479 61 l-313 0 0 -505z"/>
<path d="M650 940 l0 -460 25 0 25 0 0 435 0 435 238 0 c130 0 252 -4 271 -10
49 -14 105 -55 138 -102 23 -34 28 -54 31 -112 3 -63 0 -77 -25 -126 -22 -43
-41 -62 -83 -87 l-54 -33 -158 0 -158 0 0 -31 0 -31 163 4 c184 4 222 15 289
83 140 141 104 372 -71 462 l-63 33 -284 0 -284 0 0 -460z"/>
<path d="M730 895 l0 -415 30 0 30 0 0 391 0 390 211 -3 210 -3 39 -41 c50
-54 59 -100 34 -163 -15 -36 -28 -51 -64 -68 -39 -21 -59 -23 -182 -23 l-138
0 0 -25 0 -25 149 0 c82 0 162 5 178 11 42 15 102 79 113 119 13 46 13 112 -1
147 -12 34 -64 90 -101 109 -21 11 -80 14 -268 14 l-240 0 0 -415z"/>
<path d="M820 856 l0 -376 25 0 25 0 0 345 0 345 154 0 c170 0 186 -5 186 -60
0 -54 -17 -60 -171 -60 l-139 0 0 -25 0 -25 155 0 c152 0 156 1 180 25 21 20
25 34 25 83 0 52 -3 61 -31 88 l-30 29 -190 3 -189 3 0 -375z"/>
</g>
</svg>
